<svg width="24" height="24" viewBox="0 0 24 24" fill="none" xmlns="http://www.w3.org/2000/svg">
<path d="M19 8H18.18L16.48 3.32C16.3393 2.9341 16.0836 2.60065 15.7474 2.36462C15.4112 2.12858 15.0108 2.00132 14.6 2H13C12.45 2 12 2.45 12 3C12 3.55 12.45 4 13 4H14.6L16.06 8H11.25L10.89 7H10.98C11.53 7 11.98 6.55 11.98 6C11.98 5.45 11.53 5 10.98 5H8C7.45 5 7 5.45 7 6C7 6.55 7.45 7 8 7H8.75L10.57 12H9.9C9.46 9.77 7.59 8.12 5.25 8.01C2.45 7.87 0 10.2 0 13C0 15.8 2.2 18 5 18C7.46 18 9.45 16.31 9.9 14H14.1C14.54 16.23 16.41 17.88 18.75 17.99C21.55 18.12 24 15.8 24 12.99C24 10.2 21.8 8 19 8ZM6 14H7.82C7.4 15.23 6.22 16.08 4.8 15.99C3.31 15.9 2.07 14.64 2 13.14C1.93 11.39 3.27 10 5 10C6.33 10 7.42 10.83 7.82 12H6C5.45 12 5 12.45 5 13C5 13.55 5.45 14 6 14ZM14.1 12H12.7L11.97 10H15C14.56 10.58 14.24 11.25 14.1 12ZM18.88 16C17.34 15.94 16.04 14.63 16 13.08C15.98 12.12 16.39 11.28 17.05 10.72L17.67 12.42C17.86 12.94 18.43 13.21 18.95 13.02C19.47 12.83 19.74 12.26 19.55 11.74L18.92 10.01L18.93 10C19.3309 9.98633 19.7305 10.0541 20.1045 10.1991C20.4785 10.3441 20.8193 10.5634 21.1062 10.8438C21.3932 11.1242 21.6203 11.4598 21.7739 11.8304C21.9275 12.201 22.0044 12.5989 22 13C22 14.72 20.62 16.06 18.88 16ZM11 21H7L13 24V22H17L11 19V21Z" fill="url(#paint0_linear_8_159)"/>
<defs>
<linearGradient id="paint0_linear_8_159" x1="12" y1="2" x2="12" y2="24" gradientUnits="userSpaceOnUse">
<stop stop-color="#FFC800"/>
<stop offset="0.919271" stop-color="#F7B108"/>
<stop offset="1" stop-color="#F2A60D"/>
</linearGradient>
</defs>
</svg>
