<svg width="30" height="30" viewBox="0 0 30 30" fill="none" xmlns="http://www.w3.org/2000/svg">
<path d="M25.8398 19.6992L25.8363 19.6963C25.2545 19.1584 24.5016 19.0318 23.952 18.9393L23.9115 18.9322C23.3813 18.8449 23.2975 18.7857 23.0572 18.5707C22.9143 18.4436 22.7437 18.2396 22.7437 17.9883C22.7437 17.7369 22.9143 17.533 23.0566 17.4059L24.8309 15.8314C26.3496 14.4891 27.1863 12.6873 27.1863 10.7578C27.1863 8.82832 26.3514 7.02656 24.8309 5.68359C22.7279 3.83262 19.8504 2.8125 16.7232 2.8125C13.1086 2.8125 9.49219 4.18184 6.79688 6.56895C4.22637 8.84063 2.8125 11.884 2.8125 15.1377C2.8125 18.3914 4.22812 21.4348 6.79688 23.7059C8.07129 24.8332 9.57949 25.7086 11.2805 26.3086C12.9165 26.8825 14.6368 27.1795 16.3705 27.1875H16.4766C20.0508 27.1875 23.4545 25.9822 25.8158 23.8828C26.3842 23.3813 26.7035 22.6623 26.7146 21.8578C26.727 21.0275 26.4 20.2201 25.8398 19.6992ZM6.5625 12.1875C6.5625 11.8167 6.67247 11.4541 6.87849 11.1458C7.08452 10.8375 7.37736 10.5971 7.71997 10.4552C8.06258 10.3133 8.43958 10.2762 8.80329 10.3485C9.16701 10.4209 9.5011 10.5995 9.76332 10.8617C10.0255 11.1239 10.2041 11.458 10.2765 11.8217C10.3488 12.1854 10.3117 12.5624 10.1698 12.905C10.0279 13.2476 9.78754 13.5405 9.47919 13.7465C9.17085 13.9525 8.80834 14.0625 8.4375 14.0625C7.94022 14.0625 7.46331 13.865 7.11167 13.5133C6.76004 13.1617 6.5625 12.6848 6.5625 12.1875ZM8.90625 20.0977C8.53541 20.0977 8.1729 19.9877 7.86456 19.7817C7.55621 19.5756 7.31589 19.2828 7.17398 18.9402C7.03206 18.5976 6.99493 18.2206 7.06728 17.8569C7.13962 17.4931 7.3182 17.1591 7.58043 16.8968C7.84265 16.6346 8.17674 16.456 8.54046 16.3837C8.90417 16.3113 9.28117 16.3485 9.62378 16.4904C9.96639 16.6323 10.2592 16.8726 10.4653 17.181C10.6713 17.4893 10.7812 17.8518 10.7812 18.2227C10.7812 18.7199 10.5837 19.1968 10.2321 19.5485C9.88044 19.9001 9.40353 20.0977 8.90625 20.0977ZM11.25 8.4375C11.25 8.06666 11.36 7.70415 11.566 7.39581C11.772 7.08746 12.0649 6.84714 12.4075 6.70523C12.7501 6.56331 13.1271 6.52618 13.4908 6.59853C13.8545 6.67087 14.1886 6.84945 14.4508 7.11167C14.713 7.3739 14.8916 7.70799 14.964 8.07171C15.0363 8.43542 14.9992 8.81242 14.8573 9.15503C14.7154 9.49764 14.475 9.79048 14.1667 9.99651C13.8584 10.2025 13.4958 10.3125 13.125 10.3125C12.6277 10.3125 12.1508 10.115 11.7992 9.76332C11.4475 9.41169 11.25 8.93478 11.25 8.4375ZM15 24.3164C14.4437 24.3164 13.9 24.1515 13.4375 23.8424C12.9749 23.5334 12.6145 23.0941 12.4016 22.5802C12.1887 22.0663 12.133 21.5008 12.2415 20.9552C12.3501 20.4096 12.6179 19.9085 13.0113 19.5152C13.4046 19.1218 13.9057 18.854 14.4513 18.7454C14.9969 18.6369 15.5624 18.6926 16.0763 18.9055C16.5902 19.1184 17.0295 19.4789 17.3385 19.9414C17.6476 20.4039 17.8125 20.9476 17.8125 21.5039C17.8125 22.2498 17.5162 22.9652 16.9887 23.4926C16.4613 24.0201 15.7459 24.3164 15 24.3164ZM19.2188 10.3125C18.8479 10.3125 18.4854 10.2025 18.1771 9.99651C17.8687 9.79048 17.6284 9.49764 17.4865 9.15503C17.3446 8.81242 17.3074 8.43542 17.3798 8.07171C17.4521 7.70799 17.6307 7.3739 17.8929 7.11167C18.1551 6.84945 18.4892 6.67087 18.853 6.59853C19.2167 6.52618 19.5937 6.56331 19.9363 6.70523C20.2789 6.84714 20.5717 7.08746 20.7778 7.39581C20.9838 7.70415 21.0938 8.06666 21.0938 8.4375C21.0938 8.93478 20.8962 9.41169 20.5446 9.76332C20.1929 10.115 19.716 10.3125 19.2188 10.3125Z" fill="url(#paint0_linear_488_179)"/>
<defs>
<linearGradient id="paint0_linear_488_179" x1="14.9994" y1="2.8125" x2="14.9994" y2="27.1875" gradientUnits="userSpaceOnUse">
<stop stop-color="#606060"/>
<stop offset="1" stop-color="#474747"/>
</linearGradient>
</defs>
</svg>
