<svg width="30" height="30" viewBox="0 0 30 30" fill="none" xmlns="http://www.w3.org/2000/svg">
<path d="M28.0705 6.52441C28.0574 6.31489 27.9743 6.11583 27.8346 5.95912C27.6949 5.80242 27.5067 5.69714 27.3 5.66016C22.2592 4.75664 20.1381 4.05 15.586 2.00156C15.1313 1.83223 14.8494 1.83516 14.4141 2.00156C9.86194 4.05234 7.74085 4.75547 2.70003 5.66016C2.49337 5.69714 2.30511 5.80242 2.16541 5.95912C2.0257 6.11583 1.94264 6.31489 1.92952 6.52441C1.70393 10.1045 2.18381 13.4385 3.35686 16.4355C4.31605 18.8795 5.73706 21.1157 7.54221 23.0221C10.1596 25.8012 13.0617 27.4236 14.5582 28.0377C14.842 28.1535 15.1598 28.1535 15.4436 28.0377C17.0256 27.3979 19.8199 25.8217 22.4578 23.0209C24.2629 21.1149 25.6839 18.879 26.6432 16.4355C27.8162 13.4391 28.2961 10.1045 28.0705 6.52441Z" fill="url(#paint0_linear_489_182)"/>
<defs>
<linearGradient id="paint0_linear_489_182" x1="15" y1="1.87566" x2="15" y2="28.1245" gradientUnits="userSpaceOnUse">
<stop stop-color="#606060"/>
<stop offset="1" stop-color="#474747"/>
</linearGradient>
</defs>
</svg>
