<svg width="24" height="24" viewBox="0 0 24 24" fill="none" xmlns="http://www.w3.org/2000/svg">
<path d="M11 9C8.79 9 7 10.79 7 13C7 15.21 8.79 17 11 17C13.21 17 15 15.21 15 13C15 10.79 13.21 9 11 9ZM19.94 12C19.7135 9.97212 18.8042 8.08154 17.3613 6.63869C15.9185 5.19585 14.0279 4.28651 12 4.06V3C12 2.45 11.55 2 11 2C10.45 2 10 2.45 10 3V4.06C7.97212 4.28651 6.08154 5.19585 4.63869 6.63869C3.19585 8.08154 2.28651 9.97212 2.06 12H1C0.45 12 0 12.45 0 13C0 13.55 0.45 14 1 14H2.06C2.28651 16.0279 3.19585 17.9185 4.63869 19.3613C6.08154 20.8042 7.97212 21.7135 10 21.94V23C10 23.55 10.45 24 11 24C11.55 24 12 23.55 12 23V21.94C14.0279 21.7135 15.9185 20.8042 17.3613 19.3613C18.8042 17.9185 19.7135 16.0279 19.94 14H21C21.55 14 22 13.55 22 13C22 12.45 21.55 12 21 12H19.94ZM11 20C7.13 20 4 16.87 4 13C4 9.13 7.13 6 11 6C14.87 6 18 9.13 18 13C18 16.87 14.87 20 11 20Z" fill="url(#paint0_linear_8_161)"/>
<defs>
<linearGradient id="paint0_linear_8_161" x1="11" y1="2" x2="11" y2="24" gradientUnits="userSpaceOnUse">
<stop stop-color="#FFC800"/>
<stop offset="0.919271" stop-color="#F7B108"/>
<stop offset="1" stop-color="#F2A60D"/>
</linearGradient>
</defs>
</svg>
