<svg width="32" height="32" viewBox="0 0 32 32" fill="none" xmlns="http://www.w3.org/2000/svg">
<path d="M8.06701 10.7333C6.32138 12.4792 5.33851 14.8456 5.33352 17.3144C5.32852 19.7833 6.3018 22.1537 8.04034 23.9066C10.0003 19.3733 13.4937 15.5866 17.8537 13.3333C14.0904 16.5175 11.5501 20.9101 10.667 25.76C14.1337 27.4 18.4003 26.8 21.267 23.9333C25.2537 19.9466 26.3737 9.07996 26.6137 6.09329C26.622 5.99839 26.6095 5.90281 26.5769 5.81328C26.5444 5.72375 26.4926 5.64244 26.4252 5.57508C26.3579 5.50771 26.2765 5.45593 26.187 5.42337C26.0975 5.39081 26.0019 5.37827 25.907 5.38662C22.9203 5.62662 12.0537 6.74662 8.06701 10.7333Z" fill="url(#paint0_linear_489_178)"/>
<defs>
<linearGradient id="paint0_linear_489_178" x1="15.9748" y1="5.38411" x2="15.9748" y2="26.6592" gradientUnits="userSpaceOnUse">
<stop stop-color="#606060"/>
<stop offset="1" stop-color="#474747"/>
</linearGradient>
</defs>
</svg>
